{"title":"Badtameez Dil 720P HD Yeh Jawaani Hai Deewani - Ranbir Kapoor, D","uid":8960254,"size":69939916,"categoryP":"video","categoryS":"music_videos","magnet":"?xt=urn:btih:f0ee7e5e3044dbab536d544d2716d115b6f831a6&amp;dn=Badtameez+Dil+720P+HD+Yeh+Jawaani+Hai+Deewani+-+Ranbir+Kapoor%2C+D&amp;tr=udp%3A%2F%2Ftracker.openbittorrent.com%3A80&amp;tr=udp%3A%2F%2Fopen.demonii.com%3A1337&amp;tr=udp%3A%2F%2Ftracker.coppersurfer.tk%3A6969&amp;tr=udp%3A%2F%2Fexodus.desync.com%3A6969","seeders":0,"leechers":1,"uploader":"jatt13","files":1,"time":1380089128,"description":"Badtameez Dil 720P HD Yeh Jawaani Hai Deewani - Ranbir Kapoor, Deepika Padukon - GOPI SAHI PDR.avi\n[img]http://imageshack.us/a/img802/2678/k9wp.png[/img]\n\nVideo\nID                             : 1\nFormat                         : AVC\nFormat/Info                    : Advanced Video Codec\nFormat profile                 : &lt;a class=&quot;__cf_email__&quot; href=&quot;/cdn-cgi/l/email-protection&quot; data-cfemail=&quot;d39eb2babd939fe6fde2&quot;&gt;[email&amp;#160;protected]&lt;/a&gt;&lt;script cf-hash='f9e31' type=&quot;text/javascript&quot;&gt;\n/* &lt;![CDATA[ */!function(){try{var t=&quot;currentScript&quot;in document?document.currentScript:function(){for(var t=document.getElementsByTagName(&quot;script&quot;),e=t.length;e--;)if(t[e].getAttribute(&quot;cf-hash&quot;))return t[e]}();if(t&amp;&amp;t.previousSibling){var e,r,n,i,c=t.previousSibling,a=c.getAttribute(&quot;data-cfemail&quot;);if(a){for(e=&quot;&quot;,r=parseInt(a.substr(0,2),16),n=2;a.length-n;n+=2)i=parseInt(a.substr(n,2),16)^r,e+=String.fromCharCode(i);e=document.createTextNode(e),c.parentNode.replaceChild(e,c)}}}catch(u){}}();/* ]]&gt; */&lt;/script&gt;\nFormat settings, CABAC         : Yes\nFormat settings, ReFrames      : 1 frame\nCodec ID                       : V_MPEG4/ISO/AVC\nDuration                       : 4mn 30s\nBit rate                       : 1 835 Kbps\nWidth                          : 1 280 pixels\nHeight                         : 720 pixels\nDisplay aspect ratio           : 16:9\nFrame rate mode                : Constant\nFrame rate                     : 25.000 fps\nColor space                    : YUV\nChroma subsampling             : 4:2:0\nBit depth                      : 8 bits\nScan type                      : Progressive\nBits/(Pixel*Frame)             : 0.080\nStream size                    : 59.2 MiB (89%)\nDefault                        : Yes\nForced                         : No\n\nAudio\nID                             : 2\nFormat                         : MPEG Audio\nFormat version                 : Version 1\nFormat profile                 : Layer 3\nCodec ID                       : A_MPEG/L3\nCodec ID/Hint                  : MP3\nDuration                       : 4mn 30s\nBit rate mode                  : Constant\nBit rate                       : 192 Kbps\nChannel count                  : 2 channels\nSampling rate                  : 44.1 KHz\nCompression mode               : Lossy\nStream size                    : 6.19 MiB (9%)\nWriting library                : LAMELAME_MAJOR_VERSI\nDefault                        : Yes\nForced                         : No\n\n[img]http://imageshack.us/a/img21/9094/nrb7.jpg[/img]\n[img]http://imageshack.us/a/img24/1107/jr9e.png[/img]\n[img]http://imageshack.us/a/img707/8026/vts.png[/img]\n[img]http://imageshack.us/a/img842/107/jcs1.png[/img]","torrent":{"xt":"urn:btih:f0ee7e5e3044dbab536d544d2716d115b6f831a6","amp;dn":"Badtameez+Dil+720P+HD+Yeh+Jawaani+Hai+Deewani+-+Ranbir+Kapoor%2C+D","amp;tr":["udp%3A%2F%2Ftracker.openbittorrent.com%3A80","udp%3A%2F%2Fopen.demonii.com%3A1337","udp%3A%2F%2Ftracker.coppersurfer.tk%3A6969","udp%3A%2F%2Fexodus.desync.com%3A6969"],"infoHash":"f0ee7e5e3044dbab536d544d2716d115b6f831a6","infoHashBuffer":{"type":"Buffer","data":[240,238,126,94,48,68,219,171,83,109,84,77,39,22,209,21,182,248,49,166]},"announce":[],"urlList":[]}}